<?xml version="1.0" encoding="UTF-8"?>
<svg width="752pt" height="752pt" version="1.1" viewBox="0 0 752 752" xmlns="http://www.w3.org/2000/svg">
 <path d="m569.22 151.05h-327.25c-11.367 0-20.836 9.4727-20.836 20.836v49.254h-26.992c-17.523 0-32.203 14.207-32.203 32.203s14.207 32.203 32.203 32.203h26.992v58.723h-26.992c-17.523 0-32.203 14.207-32.203 32.203s14.207 32.203 32.203 32.203h26.992v58.723h-26.992c-17.523 0-32.203 14.207-32.203 32.203 0 17.523 14.207 32.203 32.203 32.203h26.992v49.254c0 11.367 9.4727 20.836 20.836 20.836h327.25c11.367 0 20.836-9.4727 20.836-20.836v-408.23c0-12.309-9.4688-21.781-20.836-21.781zm-163.39 104.66c27.941 0 50.672 22.73 50.672 50.672 0 27.941-22.73 50.672-50.672 50.672-27.941 0-50.672-22.73-50.672-50.672 0-27.938 22.73-50.672 50.672-50.672zm75.773 161.49-3.7891 69.617c-0.47266 5.2109-4.7344 9.4727-9.9453 9.4727l-125.02-0.003907c-5.2109 0-9.4727-4.2617-9.9453-9.4727l-3.7891-69.617c-1.4219-24.152 14.207-44.988 35.992-51.621 11.367 7.5781 25.102 12.312 39.781 12.312s28.414-4.7344 40.254-12.312c22.258 6.6328 37.887 27.473 36.465 51.625z"/>
</svg>
