<svg width="13" height="11" fill="none" xmlns="http://www.w3.org/2000/svg"><path fill-rule="evenodd" clip-rule="evenodd" d="M4.728 10.243s.044 0 .088.043h.264c.132 0 .308-.043.484-.086s.396-.086.572-.086h.044c.132-.085.264-.085.396-.128A.637.637 0 0 0 6.84 9.9c.088-.043.132-.043.22-.086.044 0 .088-.043.132-.043.044 0 .088-.042.132-.085.132-.086.176-.172.22-.343V7.329c.044-.515.044-1.029.088-1.543h4.18c.088 0 .176 0 .22-.043.088-.086.176-.214.132-.343v-.043c-.044-.214-.088-.471-.132-.686 0-.042 0-.085-.044-.128-.044-.086-.044-.214-.044-.3s0-.172-.044-.214c0-.043-.044-.129-.044-.172a.235.235 0 0 0-.132-.214h-.044c-.088-.043-.176-.043-.264-.043H9.744c-.044 0-.088.043-.176 0-.176 0-.308-.043-.484 0H7.852c.044-.3.044-.557.088-.857V2.57c.088-.685.176-1.414.352-2.1.088-.3 0-.471-.176-.557C8.028.043 7.984 0 7.94 0c-.22 0-.44 0-.66.043-.176.043-.352.086-.528.086-.22 0-.44.042-.66 0-.22-.043-.44 0-.704.128A.801.801 0 0 0 5.08.6c-.088.257-.132.471-.088.686v.728c0 .086 0 .215-.044.3-.044.3-.044.557-.044.857v.3c0 .129-.044.258-.044.429-.044 0-.088.043-.132.043-.088-.086-.176-.086-.22-.086H3.98c-.308 0-.572 0-.88.043h-.044c-.044 0-.088 0-.088.043h-.044c-.264-.086-.528-.043-.836 0 .044 0 .044.043.088.043s.088.043.088.043H2l.088.085a5.447 5.447 0 0 1-.836.043h-.44c0 .043-.044.043-.044.043-.044.043-.088.086-.044.129v.3c.044.342.088.642.176.985.044.129.088.215.132.343.088.129.264.214.484.214H2c.572-.042 1.144-.042 1.716-.085.176 0 .396 0 .572-.043h.44C4.64 7.329 4.552 8.614 4.552 9.9c0 .214.044.3.176.343 0 0-.044 0 0 0ZM2.264 4.029c.044 0 0 0 0 0Zm.704-.086c-.044 0-.044 0 0 0-.044 0-.044 0 0 0-.044 0-.044 0 0 0-.044 0-.044 0 0 0Zm0 0h.088c.044 0 .044 0 .044.043h-.044c-.044 0-.044 0-.088-.043Zm-.176.086h-.044v-.043l.044.043ZM4.728 3.9h.088-.088Z" fill="#00FFD0"/></svg>