<svg width="68" height="96" fill="none" xmlns="http://www.w3.org/2000/svg"><path fill-rule="evenodd" clip-rule="evenodd" d="M0 52.364v10.363C.03 81.166 15.24 96 34 96c18.76 0 33.97-14.834 34-33.273V0H0v52.364Z" fill="#00FFD0"/><path fill="#fff" d="M0 0h68v34.909H0z"/><path fill-rule="evenodd" clip-rule="evenodd" d="M0 35.678h68v-.769H0v.769Z" fill="#333"/><path fill-rule="evenodd" clip-rule="evenodd" d="M0 62.727V0h68v62.727C67.97 81.166 52.76 96 34 96 15.24 96 .03 81.166 0 62.727Zm.768-.234V.764h66.464v61.729C67.202 80.638 52.336 95.236 34 95.236S.796 80.638.768 62.493Z" fill="#333"/><path fill-rule="evenodd" clip-rule="evenodd" d="M18.304 60.603c0-.756-.486-.967-1.45-.967h-.604v1.949h.603c.956 0 1.45-.225 1.451-.982Zm.917 0c0 1.17-.761 1.708-2.33 1.708h-.642v1.785l-.894-.001.002-5.186 1.536.001c1.56 0 2.329.516 2.328 1.693Zm4.006 1.538-.799-2.363h-.023l-.801 2.362 1.623.001Zm.243.718-2.11-.001-.415 1.24h-.902l1.869-5.186h1.066l1.879 5.187h-.965l-.422-1.24Zm4.446-1.48h-.721v-1.74l.721.001c.8 0 1.208.234 1.208.874s-.409.865-1.208.865Zm.007.71 1.325 2.012h.972l-1.426-2.098c.792-.17 1.254-.616 1.255-1.489 0-1.1-.736-1.599-2.14-1.6h-1.607L26.3 64.1h.894V62.09h.729Zm7.544-2.422h-1.568l-.002 4.436h-.894l.002-4.437-1.56-.001v-.748l4.022.001v.749Zm2.408-.748h-.863l-.002 5.186h.823l.001-3.845h.016l2.476 3.846h.863l.002-5.185h-.823l-.002 3.844h-.016l-2.475-3.846Zm8.779 4.449v.74l-3.52-.001.001-5.186 3.458.002v.748h-2.564l-.001 1.404h2.407v.725l-2.407-.001v1.568h2.626Zm3.31-1.98h-.722V59.65h.722c.8.001 1.207.235 1.207.874 0 .64-.408.866-1.208.865Zm.007.71 1.324 2.013h.972l-1.426-2.098c.792-.172 1.255-.616 1.255-1.489 0-1.1-.736-1.599-2.14-1.6H48.35l-.002 5.186h.894v-2.013l.698.001h.032ZM11.627 49.492c0-1.154-.742-1.476-2.213-1.476h-.922v2.975h.922c1.46 0 2.213-.345 2.213-1.5Zm1.4 0c0 1.785-1.161 2.618-3.553 2.618h-.982v2.713H7.13v-7.914h2.345c2.38 0 3.553.786 3.553 2.583Zm3.263 1.178h1.1c1.221 0 1.843-.345 1.843-1.321s-.622-1.333-1.842-1.333h-1.1v2.654Zm3.134 4.153-2.021-3.07H16.29v3.07h-1.364v-7.914h2.453c2.141 0 3.266.762 3.266 2.44 0 1.333-.706 2.011-1.914 2.272l2.177 3.202h-1.484Zm8.767 0v-1.131h-4.008V51.3h3.673v-1.106h-3.673v-2.142h3.912V46.91H22.82v7.914h5.372Zm2.007-7.914h1.639l2.393 5.2h.024l2.393-5.2h1.603v7.914h-1.28v-5.938h-.025l-2.189 4.784H33.68l-2.2-4.784h-.025v5.938h-1.256v-7.914Zm11.781 7.914h-1.364v-7.914h1.364v7.914Zm2.248-3.083v-4.83h1.363v4.652c0 1.654.563 2.273 1.747 2.273 1.184 0 1.735-.62 1.735-2.273v-4.653h1.351v4.831c0 2.25-1.088 3.25-3.086 3.25-2.022 0-3.11-1.013-3.11-3.25Zm10.082-4.83h-1.64v7.913h1.257v-5.938h.024l2.201 4.784h1.077l2.19-4.784h.023v5.938h1.28v-7.914h-1.603l-2.393 5.2h-.024l-2.392-5.2Z" fill="#333"/><path fill-rule="evenodd" clip-rule="evenodd" d="M45.066 19.936c.022.19-.126.345-.126.345l-.165-.052s-1.222-.428-3.102-.977c0 0-1.663-.491-2.34-.712 0 0-.144-.055-.428-.028-.284.028-1.266.102-1.912.17l-.988.11c-1.784.203-2.6.239-2.6.239-2.83.272-3.508.323-3.508.323-1.494.108-2.446.286-4.683.43l-4.209.42s-.3.032-.302.03l-.112.01c-.093-.061-.104-.133-.104-.133l.004-.155c.178-.064-.022-.255-.022-.255-.091-.038-.06-.105-.06-.105 0-.013.007-.02.012-.03.01-.016.028-.042.027-.046-.02-.05.073-.23.073-.23-.047-.06-.028-.048-.076-.107-.03-.038-.044-.15-.052-.231-.004-.056.095-.166.07-.196-.044-.049-.088-.093-.13-.146a.218.218 0 0 1-.034-.081.09.09 0 0 1 .014-.057c.03-.043.031-.045-.007-.113-.014-.025-.03-.046-.045-.07-.033-.054.074-.172.064-.249a.634.634 0 0 0-.026-.109.937.937 0 0 1-.022-.089.258.258 0 0 1-.008-.02.094.094 0 0 1-.004-.052.286.286 0 0 1-.003-.078l-.035-.112c-.008-.03-.007-.055.004-.073.004-.004.007-.01.011-.012.022-.013.014-.066.024-.094l-.014-.017c-.015-.018-.021-.031-.016-.045.011-.03 0-.076.003-.112a.309.309 0 0 0-.023-.128c-.007-.02-.012-.04-.017-.06-.007-.028-.005-.049.003-.063.012-.02.026-.037.038-.057.01-.014.007-.05-.004-.077a.805.805 0 0 0-.028-.06.91.91 0 0 0-.046-.062.19.19 0 0 1-.047-.157c.007-.042 0-.064-.024-.09a.263.263 0 0 1-.042-.058c-.045-.09-.043-.116.009-.123.046-.006.055-.018.04-.115-.015-.09-.013-.145.035-.158.025-.007.048-.036.038-.107-.01-.073.022-.203-.02-.22-.054-.023-.06-.114-.09-.169 0 0 .004-.02.007-.02.008.004.018.017.026.02.01.004.02.002.03.002-.008-.02-.013-.049-.023-.062-.03-.038-.038-.067-.038-.13 0-.077-.005-.178-.072-.234-.01-.008-.024-.061-.025-.088-.001-.019.014-.035.024-.042.013-.007.03 0 .042-.005.012-.005.021-.018.032-.028-.01-.024-.017-.052-.03-.07a.392.392 0 0 0-.059-.068c-.037-.034-.055-.093-.031-.12.04-.042.008-.077-.017-.122a.499.499 0 0 1-.037-.081.13.13 0 0 1-.002-.054c.009-.016.04-.074.111-.07.032.001.037-.042.035-.054-.01-.023-.087-.003-.097-.013-.027-.025.002-.035-.025-.054-.029-.02-.075-.136-.066-.173.004-.02.023-.025.037-.028.021-.006.051.011.014-.07-.024-.054-.013-.031.003-.097.008-.032.025-.018.012-.055l.023-.02s.358-.052.408-.057c.102-.01.016-.148.016-.148-.029-.184-.006-.261-.008-.286-.012-.147-.064-.17-.124-.206-.014-.009-.032-.066-.04-.101-.003-.013.017-.042.03-.041.021 0 .029-.012.052 0 .007.004.013-.028.02-.022-.002-.016.01-.011.005-.021-.016-.029-.028-.007-.043-.037a.287.287 0 0 1-.031-.084c-.002-.01.017-.027.03-.03.02-.005.03-.06.008-.12-.016-.042-.019-.04-.03-.09-.017-.08-.008-.13.023-.16.037-.035.033-.071-.013-.141l-.011-.018c-.02-.02-.04-.038-.038-.086.002-.056.042-.095.06-.091.012.003.02-.027.02-.037.01-.062.008-.043-.008-.076-.019-.037-.06-.036-.096-.04-.069-.009-.06-.036-.098-.085-.033-.043-.043-.06-.016-.096.007-.01.05-.018.064-.016.027.003.017-.018.02-.07 0-.015.005-.027.008-.038.027-.088.027-.088-.004-.221-.023-.095-.039-.184-.002-.249.024-.042.006-.184.04-.191.018-.005.02-.06.024-.089.003-.02.007-.027.018-.028.007 0 .015-.021.019-.033.008-.026-.034-.068-.044-.088a1.485 1.485 0 0 0-.052-.104c-.026-.046-.047-.083-.007-.1.026-.012.02-.069 0-.094-.04-.056-.049-.123-.063-.192-.002-.008-.005-.016-.005-.024-.004-.043-.05-.08-.03-.118.011-.021.039-.008.055-.02.03-.025.095-.062.061-.089-.01-.008.002-.057-.006-.07-.023-.033-.031-.06-.056-.082-.043-.038-.024-.02-.055-.091l-.006-.037c-.012-.039.035-.041.035-.041l.458-.057s1.207-.127 2.348-.24c0 0 .874-.085 4.539-.455 0 0 1.55-.134 3.315-.37 0 0 1.544-.184 4.727-.44 0 0 2.172-.221 3.735-.41 0 0 .573-.09.973.108 0 0 2.548 1.066 3.448 1.406l4.28 1.827c.109.059.037.106.037.106-.007.01-.02.015-.031.02-.02.012-.059.028-.058.032.005.047.007.103.029.137.038.063.017.049.056.111.026.04-.005.139-.032.207-.018.048-.205.111-.182.143.038.054.079.103.113.16a.12.12 0 0 1 .012.077c-.004.017-.029.036-.046.044-.06.027-.063.028-.04.095.007.026.021.048.031.072.022.054-.18.122-.2.19a.361.361 0 0 0-.014.097c0 .022-.002.05-.008.08a.16.16 0 0 1 .002.02.057.057 0 0 1-.017.044.183.183 0 0 1-.032.066c0 .035 0 .07-.002.104a.065.065 0 0 1-.038.059c-.006.003-.013.007-.02.007-.036.005-.048.05-.075.072l.012.018c.012.02.015.032.002.042-.03.023-.035.068-.058.097-.03.04-.02.083-.022.125 0 .013-.002.026-.004.04a.063.063 0 0 1-.031.05c-.026.014-.053.024-.079.037-.018.01-.032.04-.028.065.003.02.007.04.012.058.01.023.022.045.035.066.03.047.038.096-.004.144-.029.033-.027.053-.006.081a.186.186 0 0 1 .03.061c.023.087.008.109-.066.1-.067-.008-.084 0-.107.084-.02.08-.047.125-.12.122-.038-.002-.082.016-.1.078-.019.064-.008.142.042.168.065.034.032.112.05.165 0 .002-.016.017-.019.015-.01-.005-.017-.019-.027-.024-.012-.006-.027-.007-.04-.01 0 .02-.005.045.003.058.023.04.024.067-.005.121-.035.063-.073.149-.005.215.01.01.006.057-.005.08-.006.016-.034.025-.053.028-.02.003-.039-.008-.06-.007-.018 0-.037.009-.056.013.003.023.001.05.01.067a.306.306 0 0 0 .052.075c.035.037.034.092-.01.107-.074.024-.046.063-.032.108.008.025.015.051.015.078 0 .015-.014.045-.022.046-.058.006-.118.07-.175.017-.01-.009-.027-.003-.04-.004.002.023-.003.055.008.066.026.03.06.049.09.073.03.025.042.135.013.163-.015.016-.043.014-.064.013-.032-.002-.065-.024-.05.054.009.051-.006.106-.066.107-.048.002-.054.054-.054.088 0 .077-.027.124-.083.155-.027.017-.062.032-.007.063.05.028.072.08.06.165-.01.07-.02.159.046.206.015.011.015.064.01.096-.002.011-.042.03-.06.026-.028-.007-.053-.03-.08-.046l-.023-.019c-.004.014-.015.031-.012.04.008.03.025.053.033.081a.17.17 0 0 1 .006.08c-.002.01-.037.017-.055.016-.03-.002-.048-.006-.044.05.003.04-.014.087-.02.13-.012.073-.047.112-.103.128-.067.02-.079.05-.047.121.003.007.005.013.01.018.017.023.037.044.013.083-.028.046-.043.007-.066 0-.016-.007-.052-.004-.054.005-.012.036-.026.082-.018.114.009.037.038.064.061.092.036.045.08.083.11.134.027.045.01.07-.04.068a.198.198 0 0 1-.05-.008c-.037-.01-.07-.005-.096.037-.008.012-.02.02-.03.03-.076.064-.076.064-.092.185-.011.086-.029.164-.108.207-.053.03-.092.152-.14.15-.029-.002-.055.043-.074.066-.014.015-.022.02-.038.018-.01-.001-.022-.017-.033-.008-.023.018.01.096.014.116a.738.738 0 0 0 .025.102c.016.045.027.082-.035.085-.042.003-.057.052-.043.078.032.059.014.117.003.178-.002.008-.001.015-.004.022-.014.037.034.08-.012.107-.024.014-.057-.005-.085.002-.053.011-.105.029-.157.05-.007.002-.016.044-.01.056a.339.339 0 0 0 .062.095.302.302 0 0 1 .08.165c.008.05.003.098-.039.14-.07.07-.048.168-.048.168" fill="#00FFD0"/><path fill-rule="evenodd" clip-rule="evenodd" d="M22.588 10.825v6.688h.993v-7.064l-.993.376M30.638 12.651a1.676 1.676 0 0 0-1.103-.395c-.75 0-1.34.346-1.575.912-.25-.669-.85-.912-1.35-.912-.554 0-1.012.246-1.25.664l-.129-.535h-.754v5.128h.924v-3.155c0-.755.42-1.243 1.07-1.243.56 0 .88.352.88.966v3.432h.924v-3.155c0-.755.42-1.243 1.07-1.243.56 0 .881.352.881.966v3.432h.924v-3.661c0-.495-.177-.91-.512-1.2M38.181 12.651a1.676 1.676 0 0 0-1.103-.395c-.75 0-1.34.346-1.575.912-.25-.669-.85-.912-1.35-.912-.554 0-1.012.246-1.25.664l-.129-.535h-.754v5.128h.924v-3.155c0-.755.42-1.243 1.07-1.243.56 0 .88.352.88.966v3.432h.925v-3.155c0-.755.42-1.243 1.07-1.243.56 0 .88.352.88.966v3.432h.924v-3.661c0-.495-.177-.91-.512-1.2M41.925 16.743c-.794 0-1.599-.618-1.599-1.799 0-1.037.673-1.79 1.6-1.79.915 0 1.58.753 1.58 1.79 0 1.181-.796 1.8-1.58 1.8Zm-.01-4.487c-.744 0-1.384.274-1.85.793-.44.489-.682 1.162-.682 1.895 0 .736.242 1.41.682 1.9.465.515 1.105.788 1.85.788 1.468 0 2.533-1.13 2.533-2.688 0-1.558-1.065-2.688-2.532-2.688ZM19.093 23.911l-.082-.033c-.751-.3-1.283-.565-1.283-1.234 0-.659.527-1.003 1.049-1.003.42 0 .952.222 1.16.708l.884-.342-.013-.033c-.348-.859-1.266-1.244-2.021-1.244-.99 0-2.054.62-2.054 1.984 0 1.33 1.024 1.745 1.848 2.078l.101.04c.84.346 1.392.623 1.392 1.305 0 .706-.596 1.023-1.188 1.023-.584 0-1.282-.31-1.488-1.181l-.01-.038-.937.354c.283 1.087 1.215 1.786 2.395 1.786.594 0 1.146-.18 1.556-.508.463-.369.708-.897.708-1.525 0-1.337-1.071-1.762-2.017-2.137M25.408 26.372a1.483 1.483 0 0 1-1.315.788c-.77 0-1.547-.559-1.547-1.807 0-.861.466-1.787 1.488-1.787.509 0 .962.27 1.202.713l.863-.329-.015-.032c-.359-.761-1.144-1.233-2.05-1.233-.638 0-1.23.236-1.664.664-.49.484-.75 1.18-.75 2.013 0 1.84 1.262 2.679 2.434 2.679.91 0 1.718-.494 2.159-1.32l.017-.033-.007-.004-.815-.312M30.614 25.362c0 1.187-.798 1.808-1.587 1.808-.798 0-1.607-.621-1.607-1.808 0-1.04.676-1.796 1.607-1.796.92 0 1.587.756 1.587 1.796Zm-1.597-2.677c-1.462 0-2.523 1.126-2.523 2.677 0 1.553 1.061 2.679 2.523 2.679 1.462 0 2.523-1.126 2.523-2.679 0-1.551-1.06-2.677-2.523-2.677ZM35.407 25.75c0 .941-.694 1.449-1.348 1.449-.496 0-1.028-.295-1.028-1.122v-3.264h-.906v3.264c0 1.45.945 1.964 1.755 1.964.65 0 1.225-.31 1.523-.816l.172.697h.738v-5.108h-.906v2.936M38.674 21.357l-.906.347v1.11h-.858v.821h.858v2.8c0 1.398.8 1.606 1.276 1.606.212 0 .43-.033.669-.1l.028-.009v-.894l-.06.039a.865.865 0 0 1-.437.142c-.363 0-.57-.26-.57-.715v-2.869h1.067v-.821h-1.067v-1.457M41.812 26.969c.145-.113.291-.226.438-.338 1.352-1.036 2.75-2.107 2.75-3.672 0-1.227-.89-2.083-2.163-2.083-1.12 0-2.324.745-2.324 2.38 0 .08.005.167.013.222l.913-.35c0-.9.672-1.37 1.337-1.37.646 0 1.298.408 1.298 1.32 0 1.181-1.212 2.106-2.89 3.386-.24.183-.49.373-.746.572l-.015.012v.871h4.767v-.95h-3.378M49.387 25.282v-2.073l-.925.356v1.717h-2.079l2.534-4.297H47.89l-2.68 4.533v.695h3.252v1.706h.926v-1.706h1.197v-.931h-1.197" fill="#333"/><path d="m23.362 79.878 1.276-1.166c1.034-.935 2.035-1.903 2.035-3.388 0-1.265-.924-2.321-2.574-2.321-.99 0-1.716.385-2.266 1.001l.891.836c.32-.374.737-.704 1.375-.704.792 0 1.2.517 1.2 1.199 0 1.089-1.002 2.057-1.695 2.706l-2.233 2.112V81h5.38v-1.122h-3.389Zm7.397 1.287c1.99 0 2.97-1.628 2.97-4.07s-.98-4.092-2.97-4.092c-2.046 0-3.003 1.65-3.003 4.092 0 2.442.957 4.07 3.003 4.07Zm0-1.111c-1.155 0-1.65-1.056-1.65-2.959 0-1.925.495-2.97 1.65-2.97 1.155 0 1.617 1.045 1.617 2.97 0 1.903-.462 2.959-1.617 2.959Zm6.01-.176 1.275-1.166c1.034-.935 2.035-1.903 2.035-3.388 0-1.265-.924-2.321-2.574-2.321-.99 0-1.716.385-2.266 1.001l.891.836c.32-.374.737-.704 1.375-.704.792 0 1.2.517 1.2 1.199 0 1.089-1.002 2.057-1.695 2.706l-2.233 2.112V81h5.38v-1.122h-3.389Zm6.423 0 1.276-1.166c1.034-.935 2.035-1.903 2.035-3.388 0-1.265-.924-2.321-2.574-2.321-.99 0-1.716.385-2.266 1.001l.891.836c.32-.374.737-.704 1.375-.704.792 0 1.2.517 1.2 1.199 0 1.089-1.002 2.057-1.695 2.706l-2.233 2.112V81h5.38v-1.122h-3.389Z" fill="#333"/></svg>