<svg width="96" height="96" viewBox="0 0 96 96" fill="none" xmlns="http://www.w3.org/2000/svg">
<path fill-rule="evenodd" clip-rule="evenodd" d="M14.1818 52.3636L14.1822 62.7273C14.2111 80.9357 29.3404 96 47.9998 96C66.6592 96 81.7889 80.9357 81.8174 62.7273L81.8182 52.3636V0H14.1818V52.3636Z" fill="#333333"/>
<path fill-rule="evenodd" clip-rule="evenodd" d="M87.2727 64.3596L87.279 50.1818L96 50.1858L91.2276 56.989L95.9945 64.3636L87.2727 64.3596" fill="#333333"/>
<path fill-rule="evenodd" clip-rule="evenodd" d="M8.72727 50.1858L8.72139 64.3636L0 64.3596L4.77242 57.5566L0.00588461 50.1818L8.72727 50.1858" fill="#333333"/>
<path fill-rule="evenodd" clip-rule="evenodd" d="M86.1741 65.7268C86.1737 66.1776 85.7978 66.5458 85.3376 66.5455L10.6543 66.5115C10.1941 66.5111 9.81818 66.1429 9.81818 65.6921L9.82583 48.8186C9.82583 48.3687 10.2022 48 10.6623 48L85.3461 48.0343C85.8055 48.0343 86.1818 48.403 86.1818 48.8538L86.1741 65.7268" fill="#333333"/>
<path fill-rule="evenodd" clip-rule="evenodd" d="M14.1818 35.6689H81.8182V34.9091H14.1818V35.6689Z" fill="white"/>
<path fill-rule="evenodd" clip-rule="evenodd" d="M51.6552 53.0507C53.8729 53.0507 55.5228 55.0118 55.5228 57.6331C55.5228 60.2361 53.8729 62.1976 51.6552 62.1976C49.4374 62.1976 47.7692 60.2361 47.7692 57.6148C47.7692 55.0118 49.4374 53.0507 51.6552 53.0507ZM51.6552 51.2727C48.1174 51.2727 45.6243 53.9119 45.6243 57.6331C45.6243 61.3543 48.1174 63.9756 51.6552 63.9756C55.1746 63.9756 57.6674 61.336 57.6674 57.6148C57.6674 53.8936 55.1746 51.2727 51.6552 51.2727ZM27.0739 55.5069C27.0739 53.7284 25.9374 53.2338 23.6826 53.2338H22.271V57.8166H23.6826C25.919 57.8166 27.0739 57.2849 27.0739 55.5069ZM29.2184 55.5069C29.2184 58.2567 27.4404 59.5393 23.7745 59.5393H22.271V63.7189H20.1818V51.5294H23.7745C27.4221 51.5294 29.2184 52.7387 29.2184 55.5069ZM35.1395 57.3215H36.826C38.6956 57.3215 39.6491 56.7895 39.6491 55.2868C39.6491 53.7842 38.6956 53.2338 36.826 53.2338H35.1395V57.3215ZM39.942 63.7189L36.8443 58.9897H35.1395V63.7189H33.0499V51.5294H36.8077C40.0888 51.5294 41.8115 52.7025 41.8115 55.2868C41.8115 57.3398 40.7303 58.3844 38.8786 58.7884L42.215 63.7189H39.942ZM63.7719 53.2891V57.0648H69.1243V58.8063H63.7719V63.7189H61.6827V51.5294H69.4729V53.2891H63.7719ZM75.4851 63.7189H73.3955V51.5294H75.4851V63.7189Z" fill="#00FFD0"/>
<path fill-rule="evenodd" clip-rule="evenodd" d="M59.007 19.9363C59.0298 20.1267 58.8825 20.2809 58.8825 20.2809L58.7178 20.2292C58.7178 20.2292 57.5023 19.8009 55.6328 19.2517C55.6328 19.2517 53.9784 18.7607 53.306 18.5398C53.306 18.5398 53.162 18.4845 52.8793 18.5122C52.597 18.5398 51.6207 18.6139 50.978 18.681L49.9952 18.7916C48.2208 18.9954 47.4097 19.0308 47.4097 19.0308C44.594 19.303 43.92 19.3538 43.92 19.3538C42.4332 19.4624 41.4862 19.6402 39.2619 19.7842L35.0753 20.2036C35.0753 20.2036 34.7772 20.2357 34.7747 20.2341L34.6633 20.2442C34.5713 20.1828 34.5595 20.1112 34.5595 20.1112L34.564 19.9558C34.7406 19.892 34.5421 19.7012 34.5421 19.7012C34.4513 19.663 34.4814 19.5958 34.4814 19.5958C34.4823 19.5832 34.4892 19.5755 34.4941 19.5665C34.5034 19.5499 34.5225 19.5242 34.5209 19.5202C34.501 19.4701 34.5937 19.2899 34.5937 19.2899C34.5469 19.2305 34.5656 19.2415 34.5181 19.1825C34.4884 19.1447 34.4741 19.032 34.4668 18.9519C34.4623 18.8962 34.5612 18.7863 34.5351 18.7562C34.4924 18.707 34.4489 18.6627 34.407 18.6102C34.3932 18.5927 34.3781 18.5569 34.3728 18.5289C34.3696 18.5097 34.3785 18.4837 34.3871 18.4715C34.4168 18.4292 34.418 18.4272 34.3802 18.3592C34.3663 18.3336 34.3496 18.3129 34.335 18.2884C34.3021 18.2352 34.409 18.1168 34.3989 18.0399C34.3944 18.0041 34.3842 17.9659 34.3732 17.9309C34.3659 17.9081 34.3582 17.876 34.3513 17.8422C34.3484 17.8357 34.3456 17.8284 34.3431 17.8211C34.3362 17.8011 34.3358 17.7844 34.3387 17.7702C34.3346 17.7381 34.3334 17.7104 34.3366 17.6921C34.3248 17.6547 34.313 17.6173 34.3016 17.5794C34.2931 17.5497 34.2947 17.5245 34.3057 17.507C34.309 17.5025 34.3122 17.4969 34.3163 17.4948C34.3379 17.4822 34.3301 17.4293 34.3399 17.4004C34.3354 17.3947 34.3309 17.3895 34.3265 17.3842C34.3114 17.3655 34.3053 17.3524 34.3102 17.3386C34.3212 17.3081 34.3106 17.2625 34.3134 17.2268C34.3167 17.1832 34.3053 17.1397 34.2903 17.0986C34.2833 17.0795 34.2789 17.0583 34.274 17.0384C34.2667 17.0112 34.2687 16.99 34.2764 16.9762C34.2882 16.9554 34.3021 16.9383 34.3147 16.9188C34.3236 16.905 34.3216 16.8692 34.3102 16.8419C34.3016 16.8212 34.2919 16.8013 34.2821 16.7821C34.2675 16.7602 34.2524 16.739 34.237 16.7195C34.2016 16.6752 34.1792 16.6243 34.1898 16.5625C34.1967 16.521 34.189 16.499 34.1658 16.4734C34.1511 16.4575 34.1361 16.438 34.1243 16.4148C34.0795 16.3257 34.082 16.2989 34.1328 16.2916C34.1792 16.2855 34.1878 16.2737 34.1727 16.1773C34.1581 16.0865 34.1601 16.032 34.2077 16.019C34.2329 16.0121 34.2557 15.9832 34.2459 15.912C34.2358 15.8392 34.2671 15.7086 34.2256 15.6916C34.1723 15.6692 34.1666 15.5777 34.1365 15.5232C34.1361 15.5223 34.1406 15.5024 34.1434 15.5036C34.1515 15.5065 34.1609 15.5203 34.169 15.5232C34.1792 15.5272 34.189 15.5248 34.1987 15.5252C34.1914 15.504 34.1857 15.476 34.1764 15.4634C34.1471 15.4247 34.1377 15.3962 34.1381 15.332C34.1385 15.2555 34.1328 15.1546 34.0661 15.0989C34.056 15.0903 34.0429 15.0379 34.0417 15.0106C34.0405 14.9919 34.0555 14.976 34.0661 14.9691C34.0783 14.9618 34.0946 14.9691 34.1076 14.9638C34.1194 14.959 34.1288 14.9455 34.1393 14.9358C34.13 14.9122 34.1219 14.8837 34.1101 14.8666C34.0913 14.839 34.071 14.8162 34.0507 14.7975C34.0141 14.7641 33.9962 14.7051 34.0198 14.6787C34.0588 14.6364 34.0275 14.6006 34.0027 14.5554C33.9892 14.5306 33.9754 14.5034 33.9661 14.4745C33.9608 14.4586 33.9616 14.4253 33.964 14.4204C33.973 14.4045 34.0035 14.3463 34.0751 14.3504C34.1068 14.352 34.1109 14.3085 34.1096 14.2971C34.1003 14.2735 34.023 14.2939 34.0128 14.2841C33.9856 14.2585 34.0153 14.2491 33.9876 14.2296C33.9595 14.2097 33.9136 14.0937 33.9221 14.0567C33.9266 14.0368 33.9453 14.0323 33.9591 14.0286C33.9803 14.023 34.01 14.04 33.973 13.9583C33.9494 13.905 33.96 13.9274 33.9758 13.8623C33.984 13.8301 34.0006 13.8436 33.9884 13.8065L34.0112 13.7866C34.0112 13.7866 34.3667 13.7345 34.4164 13.7297C34.5176 13.7191 34.433 13.582 34.433 13.582C34.4042 13.3981 34.4269 13.3204 34.4245 13.2956C34.4123 13.1484 34.361 13.1264 34.3016 13.0898C34.2878 13.0813 34.2695 13.0243 34.2618 12.9885C34.2589 12.9759 34.2781 12.9466 34.2915 12.9474C34.3122 12.9482 34.32 12.9356 34.3427 12.9478C34.3496 12.9515 34.3562 12.9202 34.3631 12.9255C34.3614 12.9096 34.3724 12.9145 34.3675 12.9047C34.3521 12.8762 34.3399 12.8974 34.3252 12.8681C34.3122 12.8437 34.2988 12.8124 34.2943 12.7843C34.2923 12.7733 34.3114 12.7571 34.3236 12.7542C34.344 12.7493 34.3545 12.6936 34.3326 12.6346C34.3163 12.5915 34.3134 12.5935 34.3029 12.5447C34.285 12.4638 34.2943 12.4141 34.3252 12.384C34.3619 12.3486 34.3582 12.3124 34.3126 12.2429C34.309 12.2368 34.3053 12.2303 34.3012 12.2254C34.2817 12.2051 34.2618 12.1868 34.2634 12.1388C34.2654 12.083 34.3053 12.0436 34.3224 12.0476C34.3354 12.0505 34.3423 12.0204 34.344 12.0106C34.3533 11.9488 34.3509 11.9679 34.3346 11.935C34.3163 11.8975 34.2752 11.8988 34.2398 11.8943C34.1711 11.8861 34.1796 11.8589 34.1422 11.8101C34.1096 11.7674 34.0991 11.7507 34.1259 11.7141C34.1328 11.7047 34.1768 11.6962 34.1894 11.6978C34.2166 11.7011 34.2065 11.6795 34.2093 11.627C34.2101 11.6128 34.2146 11.601 34.2179 11.5896C34.2451 11.5021 34.2443 11.5021 34.2134 11.3687C34.191 11.2735 34.1751 11.1853 34.2118 11.1202C34.2362 11.0775 34.2183 10.9363 34.2508 10.9286C34.2695 10.9241 34.2707 10.8692 34.2756 10.8403C34.2785 10.8204 34.2821 10.8131 34.2931 10.8118C34.3 10.811 34.3082 10.7907 34.3118 10.7785C34.32 10.7529 34.2781 10.7114 34.2687 10.691C34.2516 10.654 34.2353 10.6202 34.2166 10.5869C34.1906 10.5409 34.1703 10.5035 34.2097 10.4864C34.2362 10.4746 34.2288 10.4181 34.2105 10.3929C34.1699 10.3367 34.1613 10.2696 34.1471 10.2013C34.1454 10.1931 34.1422 10.1846 34.1418 10.1769C34.1381 10.1341 34.0918 10.0971 34.1125 10.0585C34.1235 10.0377 34.1507 10.0512 34.167 10.0381C34.1971 10.0137 34.2618 9.97712 34.228 9.95028C34.2179 9.94214 34.2301 9.89251 34.2219 9.88072C34.1991 9.84655 34.1906 9.81929 34.1658 9.79773C34.1231 9.76031 34.1422 9.77739 34.1117 9.70662L34.1056 9.67C34.0934 9.63136 34.1406 9.62851 34.1406 9.62851L34.5958 9.57197C34.5958 9.57197 35.7966 9.44465 36.9315 9.33197C36.9315 9.33197 37.8004 9.24695 41.4459 8.87719C41.4459 8.87719 42.9868 8.74255 44.7433 8.50662C44.7433 8.50662 46.2789 8.32275 49.4448 8.06729C49.4448 8.06729 51.6052 7.8456 53.1595 7.65604C53.1595 7.65604 53.7294 7.56777 54.1273 7.76506C54.1273 7.76506 56.6619 8.83082 57.5576 9.17089L61.8138 10.9981C61.9224 11.0567 61.8512 11.1039 61.8512 11.1039C61.8443 11.1141 61.8309 11.1185 61.8203 11.1242C61.7999 11.1356 61.7621 11.1515 61.7625 11.1556C61.7678 11.2032 61.7694 11.2585 61.791 11.2926C61.8292 11.3557 61.8085 11.3415 61.8475 11.4041C61.8728 11.4444 61.8418 11.5424 61.8158 11.6112C61.7979 11.6588 61.612 11.7222 61.6344 11.7543C61.6718 11.808 61.7125 11.8573 61.7471 11.913C61.7589 11.9317 61.7633 11.9659 61.7585 11.9907C61.7548 12.0078 61.7304 12.0269 61.7133 12.0346C61.6531 12.0615 61.6507 12.0627 61.6726 12.1302C61.6804 12.1558 61.6942 12.1778 61.7044 12.2022C61.7259 12.2559 61.525 12.3242 61.505 12.391C61.4957 12.4219 61.492 12.4569 61.4916 12.489C61.4916 12.5105 61.4888 12.5394 61.4831 12.5695C61.4843 12.576 61.4847 12.5825 61.4851 12.5895C61.4859 12.6082 61.479 12.6224 61.4684 12.6334C61.4599 12.6615 61.4489 12.6846 61.4367 12.6985C61.4363 12.7335 61.4359 12.768 61.4347 12.803C61.4334 12.8299 61.42 12.8506 61.3968 12.8616C61.3903 12.8649 61.3838 12.8685 61.3769 12.8693C61.3411 12.8734 61.3285 12.9198 61.3025 12.9409C61.3061 12.947 61.3098 12.9531 61.3138 12.9588C61.3265 12.9783 61.3285 12.991 61.3159 13.0011C61.2858 13.0243 61.2809 13.0686 61.2585 13.0979C61.2292 13.137 61.2386 13.1809 61.2366 13.2232C61.2357 13.2362 61.2341 13.2493 61.2329 13.2623C61.2305 13.2867 61.2183 13.3038 61.2016 13.3131C61.1759 13.327 61.1495 13.3371 61.1231 13.3501C61.1048 13.3591 61.0913 13.3892 61.095 13.4152C61.0983 13.4352 61.1023 13.4543 61.1076 13.473C61.1178 13.4958 61.1292 13.5177 61.1422 13.5385C61.1715 13.5857 61.18 13.6345 61.1377 13.6829C61.1096 13.7154 61.1109 13.7358 61.1316 13.7642C61.1442 13.7817 61.1564 13.8021 61.1625 13.8253C61.1853 13.9119 61.1698 13.9339 61.0958 13.9249C61.0291 13.9168 61.0124 13.9245 60.99 14.0091C60.9693 14.0889 60.9429 14.1336 60.8713 14.1308C60.833 14.1291 60.7891 14.147 60.7708 14.2093C60.7525 14.2727 60.7631 14.3504 60.8127 14.3764C60.8774 14.4106 60.8444 14.4887 60.8619 14.5424C60.8619 14.5436 60.8469 14.5591 60.8436 14.5571C60.8334 14.5522 60.8269 14.5379 60.8168 14.5331C60.8046 14.527 60.7903 14.5261 60.7765 14.5229C60.7773 14.5428 60.7724 14.568 60.7797 14.5811C60.8033 14.6217 60.8037 14.6482 60.7749 14.7019C60.7403 14.7653 60.7029 14.8508 60.7704 14.9166C60.7806 14.9268 60.7757 14.974 60.7655 14.9972C60.7586 15.0131 60.7309 15.022 60.7126 15.0249C60.6927 15.0277 60.6736 15.0167 60.6532 15.0175C60.6345 15.0179 60.6154 15.0265 60.5967 15.0314C60.5995 15.0541 60.5979 15.0802 60.6065 15.0977C60.6199 15.1257 60.6386 15.151 60.6585 15.1725C60.6935 15.2103 60.6927 15.2653 60.6479 15.2803C60.5747 15.3043 60.6028 15.343 60.617 15.3881C60.6248 15.4125 60.6317 15.439 60.6317 15.4658C60.6321 15.4804 60.6178 15.5105 60.6101 15.5118C60.5524 15.5183 60.4921 15.5821 60.4356 15.5289C60.4267 15.5203 60.4092 15.526 60.3957 15.5252C60.3982 15.548 60.3933 15.5801 60.4039 15.5911C60.4299 15.6204 60.4633 15.6399 60.493 15.6643C60.5231 15.6887 60.5349 15.7985 60.5068 15.827C60.4917 15.8425 60.4641 15.8409 60.4425 15.8396C60.4112 15.838 60.3778 15.8156 60.3925 15.8941C60.4018 15.9454 60.3872 15.9995 60.3278 16.0011C60.2794 16.0023 60.2741 16.0548 60.2741 16.0894C60.2745 16.1663 60.2469 16.2126 60.1915 16.2444C60.1639 16.2606 60.1297 16.2757 60.1838 16.307C60.2338 16.3351 60.2554 16.3859 60.2436 16.4722C60.2343 16.5425 60.2233 16.6308 60.2892 16.6784C60.3042 16.6894 60.3042 16.7419 60.2997 16.7744C60.2977 16.7854 60.2578 16.8045 60.2399 16.8C60.2119 16.7931 60.1867 16.7703 60.161 16.7537C60.1529 16.7484 60.1456 16.7415 60.1378 16.7354C60.1334 16.7492 60.1228 16.7663 60.1256 16.7756C60.1338 16.8041 60.15 16.8277 60.1582 16.8562C60.1651 16.8806 60.1696 16.9103 60.1639 16.9355C60.1618 16.9453 60.1277 16.953 60.1094 16.9518C60.0793 16.9501 60.0618 16.9461 60.0658 17.0018C60.0691 17.0425 60.052 17.0884 60.0451 17.1324C60.0337 17.2048 59.9991 17.2438 59.943 17.2601C59.8763 17.2792 59.8653 17.3101 59.897 17.3813C59.8999 17.3874 59.9019 17.3939 59.906 17.3988C59.9235 17.4216 59.943 17.4427 59.9194 17.4822C59.8917 17.5282 59.8763 17.4891 59.8543 17.481C59.8376 17.4749 59.8023 17.4781 59.7998 17.4867C59.7884 17.5233 59.7746 17.5693 59.7823 17.601C59.7913 17.6376 59.8206 17.6644 59.8433 17.6929C59.8791 17.7381 59.9231 17.7755 59.9528 17.8268C59.9792 17.8719 59.9621 17.8967 59.9129 17.8951C59.8958 17.8947 59.8787 17.8918 59.862 17.887C59.8263 17.8764 59.7941 17.8817 59.7669 17.9244C59.7595 17.9362 59.7481 17.9447 59.738 17.9533C59.6615 18.0183 59.6623 18.0183 59.6465 18.1387C59.6347 18.2246 59.6176 18.3027 59.5383 18.3462C59.4854 18.3751 59.4471 18.4975 59.3991 18.4951C59.3707 18.4935 59.3446 18.5386 59.3255 18.5614C59.3121 18.5769 59.3039 18.5821 59.2881 18.5801C59.2783 18.5789 59.2661 18.5626 59.2547 18.5716C59.2324 18.5903 59.2649 18.668 59.2686 18.6879C59.2751 18.7233 59.2832 18.7566 59.2942 18.7896C59.31 18.8352 59.321 18.8722 59.2592 18.8754C59.2173 18.8775 59.2023 18.9271 59.2165 18.9531C59.2478 19.0117 59.2299 19.0703 59.2189 19.1313C59.2177 19.1386 59.2181 19.1463 59.2157 19.1529C59.2014 19.1895 59.2494 19.2338 59.2035 19.2602C59.1795 19.2741 59.1469 19.255 59.1185 19.2615C59.066 19.2733 59.0139 19.2907 58.9627 19.3115C58.9557 19.3139 58.9468 19.3558 58.9525 19.368C58.9688 19.403 58.9891 19.4368 59.0143 19.4624C59.0562 19.5055 59.0827 19.5604 59.094 19.628C59.1022 19.6788 59.0969 19.7256 59.0554 19.7675C58.9858 19.8375 59.007 19.9363 59.007 19.9363" fill="#00FFD0"/>
<path fill-rule="evenodd" clip-rule="evenodd" d="M36.6492 10.8248V17.5127H37.6373V10.449L36.6492 10.8248" fill="#333333"/>
<path fill-rule="evenodd" clip-rule="evenodd" d="M44.6562 12.6508C44.3646 12.3962 43.9749 12.2559 43.5591 12.2559C42.8131 12.2559 42.2265 12.602 41.9926 13.1683C41.7445 12.4987 41.1478 12.2559 40.6503 12.2559C40.0987 12.2559 39.6427 12.502 39.4055 12.9201L39.2782 12.3848H38.5285V17.5127H39.447V14.3581C39.447 13.6027 39.8648 13.115 40.5116 13.115C41.068 13.115 41.3874 13.4668 41.3874 14.0803V17.5127H42.3059V14.3581C42.3059 13.6027 42.724 13.115 43.3704 13.115C43.9273 13.115 44.2466 13.4668 44.2466 14.0803V17.5127H45.1651V13.8517C45.1651 13.357 44.989 12.9417 44.6562 12.6508" fill="#333333"/>
<path fill-rule="evenodd" clip-rule="evenodd" d="M52.1589 12.6508C51.8673 12.3962 51.4776 12.2559 51.0618 12.2559C50.3162 12.2559 49.7292 12.602 49.4953 13.1683C49.2472 12.4987 48.6504 12.2559 48.153 12.2559C47.601 12.2559 47.1454 12.502 46.9082 12.9201L46.7809 12.3848H46.0312V17.5127H46.9497V14.3581C46.9497 13.6027 47.3675 13.115 48.0142 13.115C48.5707 13.115 48.89 13.4668 48.89 14.0803V17.5127H49.809V14.3581C49.809 13.6027 50.2267 13.115 50.8731 13.115C51.43 13.115 51.7489 13.4668 51.7489 14.0803V17.5127H52.6678V13.8517C52.6678 13.357 52.4917 12.9417 52.1589 12.6508" fill="#333333"/>
<path fill-rule="evenodd" clip-rule="evenodd" d="M55.883 16.743C55.0926 16.743 54.2924 16.1251 54.2924 14.9439C54.2924 13.907 54.9616 13.1544 55.883 13.1544C56.7937 13.1544 57.4543 13.907 57.4543 14.9439C57.4543 16.1251 56.6636 16.743 55.883 16.743ZM55.8732 12.2559C55.1329 12.2559 54.4958 12.53 54.0325 13.0483C53.5948 13.5376 53.354 14.2108 53.354 14.9439C53.354 15.6801 53.5948 16.3546 54.0325 16.8431C54.495 17.3589 55.1316 17.6319 55.8732 17.6319C57.3331 17.6319 58.3924 16.5014 58.3924 14.9439C58.3924 13.3863 57.3331 12.2559 55.8732 12.2559V12.2559Z" fill="#333333"/>
<path fill-rule="evenodd" clip-rule="evenodd" d="M33.1733 23.9109L33.0911 23.878C32.3443 23.5769 31.8154 23.3125 31.8154 22.6438C31.8154 21.9852 32.3402 21.6407 32.8584 21.6407C33.2762 21.6407 33.8062 21.8628 34.0129 22.3489L34.8923 22.0072L34.8789 21.9742C34.5327 21.1147 33.6199 20.7295 32.8686 20.7295C31.8846 20.7295 30.8253 21.3502 30.8253 22.7134C30.8253 24.0439 31.8447 24.4588 32.664 24.7916L32.7645 24.8327C33.6008 25.178 34.1491 25.4551 34.1491 26.1364C34.1491 26.843 33.556 27.1595 32.9674 27.1595C32.3861 27.1595 31.6918 26.8495 31.4872 25.9786L31.4782 25.9403L30.5455 26.2942C30.8266 27.382 31.754 28.0804 32.928 28.0804C33.5182 28.0804 34.0678 27.9006 34.4754 27.5732C34.9358 27.2038 35.1795 26.6758 35.1795 26.0473C35.1795 24.7106 34.1137 24.2856 33.1733 23.9109" fill="white"/>
<path fill-rule="evenodd" clip-rule="evenodd" d="M39.4544 26.3716C39.1912 26.8602 38.6998 27.1596 38.1474 27.1596C37.3814 27.1596 36.6081 26.601 36.6081 25.3526C36.6081 24.4919 37.0715 23.5657 38.088 23.5657C38.5944 23.5657 39.0452 23.8366 39.2839 24.2787L40.1427 23.9501L40.1272 23.9175C39.7704 23.1568 38.989 22.6846 38.088 22.6846C37.4534 22.6846 36.8656 22.9205 36.4332 23.3492C35.9455 23.8333 35.6872 24.5293 35.6872 25.3624C35.6872 27.2027 36.9421 28.041 38.1079 28.041C39.0138 28.041 39.8164 27.5472 40.2553 26.7202L40.2728 26.6877L40.2655 26.6844L39.4544 26.3716" fill="white"/>
<path fill-rule="evenodd" clip-rule="evenodd" d="M44.6331 25.3624C44.6331 26.549 43.8387 27.1697 43.0544 27.1697C42.2599 27.1697 41.4557 26.549 41.4557 25.3624C41.4557 24.3215 42.1277 23.5657 43.0544 23.5657C43.9688 23.5657 44.6331 24.3215 44.6331 25.3624ZM43.0442 22.6846C41.5904 22.6846 40.5348 23.8105 40.5348 25.3624C40.5348 26.9147 41.5904 28.041 43.0442 28.041C44.4985 28.041 45.5536 26.9147 45.5536 25.3624C45.5536 23.8105 44.4985 22.6846 43.0442 22.6846V22.6846Z" fill="white"/>
<path fill-rule="evenodd" clip-rule="evenodd" d="M49.4001 25.7496C49.4001 26.6913 48.7094 27.199 48.0594 27.199C47.5651 27.199 47.0363 26.9045 47.0363 26.0771V22.8135H46.1353V26.0771C46.1353 27.5264 47.0754 28.041 47.8808 28.041C48.5284 28.041 49.0991 27.731 49.3952 27.2254L49.5673 27.9218H50.3011V22.8135H49.4001V25.7496" fill="white"/>
<path fill-rule="evenodd" clip-rule="evenodd" d="M52.6491 21.3568L51.748 21.7042V22.8135H50.895V23.6352H51.748V26.4342C51.748 27.8323 52.5433 28.0406 53.0172 28.0406C53.2279 28.0406 53.4455 28.0077 53.6827 27.9401L53.7108 27.932V27.0379L53.6514 27.0765C53.5122 27.1656 53.3495 27.2189 53.2161 27.2189C52.8557 27.2189 52.6491 26.9582 52.6491 26.5038V23.6352H53.7108V22.8135H52.6491V21.3568" fill="white"/>
<path fill-rule="evenodd" clip-rule="evenodd" d="M55.7707 26.9687C55.9147 26.8556 56.0607 26.7434 56.2064 26.6307C57.5516 25.5954 58.9424 24.5244 58.9424 22.9587C58.9424 21.7322 58.0572 20.876 56.7901 20.876C55.6767 20.876 54.4788 21.6208 54.4788 23.2565C54.4788 23.3354 54.4841 23.4232 54.4922 23.4777L55.3997 23.1275C55.3997 22.2277 56.0689 21.7571 56.7303 21.7571C57.3726 21.7571 58.021 22.1655 58.021 23.0779C58.021 24.2592 56.8149 25.1842 55.1459 26.4643C54.9079 26.647 54.6598 26.8369 54.4043 27.0362L54.3893 27.0476V27.919H59.1307V26.9687H55.7707" fill="white"/>
<path fill-rule="evenodd" clip-rule="evenodd" d="M63.3054 25.2818V23.2093L62.3849 23.5648V25.2818H60.3181L62.8385 20.985H61.8158L59.1498 25.5181V26.2125H62.3849V27.919H63.3054V26.2125H64.4961V25.2818H63.3054" fill="white"/>
<path d="M37.9158 79.878L39.1918 78.712C40.2258 77.777 41.2268 76.809 41.2268 75.324C41.2268 74.059 40.3028 73.003 38.6528 73.003C37.6628 73.003 36.9368 73.388 36.3868 74.004L37.2778 74.84C37.5968 74.466 38.0148 74.136 38.6528 74.136C39.4448 74.136 39.8518 74.653 39.8518 75.335C39.8518 76.424 38.8508 77.392 38.1578 78.041L35.9248 80.153V81H41.3038V79.878H37.9158ZM45.3125 81.165C47.3035 81.165 48.2825 79.537 48.2825 77.095C48.2825 74.653 47.3035 73.003 45.3125 73.003C43.2665 73.003 42.3095 74.653 42.3095 77.095C42.3095 79.537 43.2665 81.165 45.3125 81.165ZM45.3125 80.054C44.1575 80.054 43.6625 78.998 43.6625 77.095C43.6625 75.17 44.1575 74.125 45.3125 74.125C46.4675 74.125 46.9295 75.17 46.9295 77.095C46.9295 78.998 46.4675 80.054 45.3125 80.054ZM51.3221 79.878L52.5981 78.712C53.6321 77.777 54.6331 76.809 54.6331 75.324C54.6331 74.059 53.7091 73.003 52.0591 73.003C51.0691 73.003 50.3431 73.388 49.7931 74.004L50.6841 74.84C51.0031 74.466 51.4211 74.136 52.0591 74.136C52.8511 74.136 53.2581 74.653 53.2581 75.335C53.2581 76.424 52.2571 77.392 51.5641 78.041L49.3311 80.153V81H54.7101V79.878H51.3221ZM58.2869 81.165C59.9259 81.165 61.0809 80.197 61.0809 78.833C61.0809 77.843 60.4539 77.139 59.4419 76.985V76.963C60.3549 76.853 60.9599 76.171 60.9599 75.225C60.9599 73.927 59.8599 73.003 58.3089 73.003C57.3299 73.003 56.5709 73.333 56.0759 73.949L56.9779 74.84C57.2859 74.389 57.7589 74.136 58.3089 74.136C59.0899 74.136 59.5959 74.587 59.5959 75.28C59.5959 75.973 58.8809 76.49 57.9349 76.49H57.5169V77.568H58.1109C59.0239 77.568 59.7059 78.096 59.7059 78.8C59.7059 79.559 59.1669 80.032 58.2869 80.032C57.6489 80.032 57.1539 79.713 56.8569 79.152L55.8339 80.021C56.2739 80.736 57.1649 81.165 58.2869 81.165Z" fill="white"/>
<path d="M28.804 48H29.7424L31.4628 43.1584H30.5856L29.3072 47.1772H29.2868L27.9948 43.1584H27.07L28.804 48ZM33.8977 47.3064V45.8444H36.1349V45.1712H33.8977V43.8588H36.2777V43.1584H33.0681V48H36.3389V47.3064H33.8977ZM41.8432 48L40.5172 46.0484C41.2516 45.8852 41.6868 45.4636 41.6868 44.6544C41.6868 43.6276 41 43.1584 39.7012 43.1584H38.2052V48H39.0348V46.1232H39.6808H39.7148L40.9456 48H41.8432ZM39.0348 43.8384H39.708C40.4492 43.8384 40.8232 44.056 40.8232 44.6544C40.8232 45.2528 40.4492 45.4636 39.708 45.4636H39.0348V43.8384ZM46.4765 48H47.5441L45.5109 45.7968L47.4081 43.1584H46.5105L44.4909 46.0144H44.4773V43.1584H43.6477V48H44.4773V47.2316L45.0485 46.436L46.4765 48ZM52.4036 48H53.3012L51.5536 43.1584H50.5608L48.8336 48H49.67L50.0576 46.844H52.016L52.4036 48ZM50.282 46.1708L51.0232 43.9676H51.0436L51.7848 46.1708H50.282ZM56.6409 48.102C57.8513 48.102 58.5177 47.49 58.5177 46.1164V43.1584H57.6949V46.0076C57.6949 47.0208 57.3617 47.3948 56.6409 47.3948C55.9201 47.3948 55.5733 47.0208 55.5733 46.0076V43.1584H54.7437V46.1164C54.7437 47.4832 55.4101 48.102 56.6409 48.102ZM63.614 43.8588V43.1584H60.52V48H61.3496V46.0484H63.478V45.3616H61.3496V43.8588H63.614ZM67.1173 48.102C68.0693 48.102 68.7425 47.5036 68.7425 46.6672C68.7425 45.9872 68.3549 45.5656 67.3281 45.1576C66.5325 44.838 66.3217 44.6544 66.3217 44.294C66.3217 43.988 66.6073 43.7568 66.9949 43.7568C67.2669 43.7568 67.5185 43.8724 67.7021 44.0832L68.2597 43.4984C67.9197 43.1992 67.5185 43.0564 67.0221 43.0564C66.0769 43.0564 65.4785 43.5868 65.4785 44.3348C65.4785 45.0012 65.8661 45.4296 66.8045 45.824C67.6613 46.1776 67.8857 46.368 67.8857 46.7488C67.8857 47.1432 67.5797 47.4016 67.1173 47.4016C66.5733 47.4016 66.2197 47.1296 65.9273 46.47L65.1929 46.81C65.4785 47.6736 66.1313 48.102 67.1173 48.102Z" fill="white"/>
</svg>
